<svg xmlns="http://www.w3.org/2000/svg" viewBox="0 0 1564.99 325.77"><defs><style>.cls-1{fill:#fff;}</style></defs><title>Asset 6</title><g id="Layer_2" data-name="Layer 2"><g id="White"><path class="cls-1" d="M14.44,321.8c-6.57,0-14.44,5-14.44-93.44C0,98.7,13.65,103.42,18.11,103.42h68c46.46,0,53.55,21.53,53.55,38.32,0,28.88-29.93,45.67-29.93,53.81,0,9.19,42.26,30.45,42.26,75.59,0,25.73-15.48,50.66-58.53,50.66Zm64-142.52c7.61-5.51,18.63-18.38,18.63-29.14,0-12.59-11-15.75-21-15.75-26,0-37.8,11.29-37.8,52.24,0,5.25-.52,12.07,6.82,12.07,3.15,0,10-2.89,14.18-5.77Zm-27.3,49.87c-7.09,3.93-11.29,5.51-11.29,14.17,0,39.9,10,44.88,31.5,44.88,18.9,0,38.06-7.35,38.06-27.82,0-18.63-23.1-44.88-30.18-44.88-3.42,0-8.14,2.89-11,4.46Z"/><path class="cls-1" d="M283.19,153.82c11,0,11.29,55.12,11.29,80.05,0,96.33-6.83,91.87-25.73,91.87-27.56,0-6.56-14.7-21.52-14.7-2.36,0-8.4,5.51-13.12,8.66-4.73,2.89-10.76,6-19.43,6-21.78,0-42-13.65-42-88.72,0-4.46,1.84-83.2,12.86-83.2H209.7c3.41,0,10.5-1.32,10.5,3.94,0,3.93-12.08,30.18-12.08,79.79,0,14.7-.26,54.59,22.31,54.59,8.66,0,28.61-2.62,28.61-59.06,0-31.49-9.18-71.91-9.18-76.11,0-3.41,6-3.15,8.92-3.15Z"/><path class="cls-1" d="M367.17,321.8c-29.39,0-55.12-26-55.12-79,0-60.11,39.9-92.92,63-92.92,5.51,0,11.29,6,15,6,5.25,0,6-9.45,6-13.65,0-21.26-6.56-30.71-6.56-40.68,0-3.68,6.56-3.68,9.19-3.68H426c11.81,0,10.76,117.59,10.76,129.93,0,6,1,94-8.14,94Zm34.12-97.64c0-46.19-7.08-49.34-16.8-49.34-11.28,0-37,14.69-37,62.46,0,18.12,6.83,46.2,29.14,46.2C405,283.48,401.29,243.06,401.29,224.16Z"/><path class="cls-1" d="M552.45,321.8c-6.56,0-14.43,5-14.43-93.44,0-129.66,13.65-124.94,18.11-124.94h68c46.46,0,53.54,21.53,53.54,38.32,0,28.88-29.92,45.67-29.92,53.81,0,9.19,42.26,30.45,42.26,75.59,0,25.73-15.49,50.66-58.54,50.66Zm64-142.52c7.61-5.51,18.63-18.38,18.63-29.14,0-12.59-11-15.75-21-15.75-26,0-37.79,11.29-37.79,52.24,0,5.25-.53,12.07,6.82,12.07,3.15,0,10-2.89,14.17-5.77Zm-27.3,49.87c-7.09,3.93-11.29,5.51-11.29,14.17,0,39.9,10,44.88,31.5,44.88,18.9,0,38.06-7.35,38.06-27.82,0-18.63-23.1-44.88-30.19-44.88-3.41,0-8.13,2.89-11,4.46Z"/><path class="cls-1" d="M769.24,212.61c7.61-1.31,13.65-2.62,13.65-11.28,0-13.39-13.91-20.48-25.46-20.48-26.78,0-22.84,22.58-28.61,22.58-8.4,0-17.59-10.24-17.59-21.53,0-19.42,21.78-32,45.93-32,8.4,0,44.36-.26,57.75,36.49,5.52,15.22,6,92.91,6,102.1,0,11.55,2.1,18.37,2.1,27.29,0,5.52-24.68,6-48,6-63.25,0-67.72-32.55-67.72-48.3C707.29,240.43,739.84,217.6,769.24,212.61Zm16.28,45.94c0-9.19,1.57-20.21-11-20.21-15.49,0-31.76,13.12-31.76,29.13,0,14.7,12.86,23.36,26.77,23.36,15.49,0,16-7.87,16-20.74Z"/><path class="cls-1" d="M861.88,321.8c-9.71,0-14.44,8.14-14.44-78.74,0-72.71-2.09-89,5.25-89.24h21.79c3.94,0,8.66-1.32,8.93,3.67.52,3.94,1,8.93,6.29,8.93,3.94,0,8.41-4.2,13.92-8.4,5.51-3.94,11.81-8.14,18.89-8.14,13.39,0,24.42,11.55,24.42,25.72,0,18.38-15,29.4-22.84,29.4-3.15,0,.52-17.59-17.59-17.59-22,0-23.62,35.44-23.62,51.19,0,52.23,8.93,74.28,8.93,79-.27,4.2-6,4.2-8.93,4.2Z"/><path class="cls-1" d="M1027.49,150.93c2.63.52,4.46,1,5.25,1,12.08,0,19.16-24.15,29.66-24.15,7.09,0,21.52,18.64,21.52,22.84,0,7.87-24.4,0-24.4,13.65,0,7.87,13.38,13.12,13.38,41.47,0,27.29-17.32,56.17-56.43,56.17-14.44,0-32,8.92-32,16.53a9,9,0,0,0,8.92,8.93c11,0,32.81-13.13,57.49-13.13,6,0,27.81,5.78,27.81,15.23,0,6.82-10.49,36.22-18.37,36.22-6.56,0-6.82-13.13-21.52-13.13-7.87,0-16,3.15-24.67,6.57-8.4,3.15-17.33,6.56-27.3,6.56-20.74,0-37.8-12.08-37.8-33.6,0-30.71,29.93-33.59,29.93-40.94,0-6.3-18.91-17.85-18.91-46.2,0-34.38,21.27-55.12,56.44-55.12A60.67,60.67,0,0,1,1027.49,150.93Zm14.44,50.66c0-16.8-11.28-26.77-25.46-26.77S991,184.79,991,201.59c0,15.48,10,26.77,25.46,26.77C1030.65,228.36,1041.93,218.39,1041.93,201.59Z"/><path class="cls-1" d="M1159,212.61c7.61-1.31,13.64-2.62,13.64-11.28,0-13.39-13.9-20.48-25.45-20.48-26.78,0-22.84,22.58-28.61,22.58-8.4,0-17.59-10.24-17.59-21.53,0-19.42,21.78-32,45.93-32,8.4,0,44.36-.26,57.75,36.49,5.51,15.22,6,92.91,6,102.1,0,11.55,2.09,18.37,2.09,27.29,0,5.52-24.67,6-48,6-63.25,0-67.72-32.55-67.72-48.3C1097,240.43,1129.58,217.6,1159,212.61Zm16.27,45.94c0-9.19,1.58-20.21-11-20.21-15.49,0-31.76,13.12-31.76,29.13,0,14.7,12.86,23.36,26.77,23.36,15.48,0,16-7.87,16-20.74Z"/><path class="cls-1" d="M1250.83,321.8c-12.86,0-13.91,5.51-13.91-86.88,0-89.76,4.2-81.1,12.86-81.1h14.43c11,0,11.29.79,11.29,3.94,0,9.71-3.15,19.42-3.15,48,0,66.14,10.24,106.82,10.24,109.19,0,8.4-7.87,6.82-13.91,6.82Z"/><path class="cls-1" d="M1387.83,321.8c-3.41,0-9.18.79-9.18-4.2,0-2.62,13.38-37.53,13.38-90.81,0-18.64-1.57-42-19.42-42-10,0-30.45,6.56-30.45,58.53,0,31.5,7.62,71.92,7.62,75.07,0,3.67-4.47,3.41-7.09,3.41h-22.31c-9.71,0-13.65,4.46-13.65-64.83,0-118.9,9.19-111.55,29.4-111.55,9.18,0,18.63-1.31,18.63,4.72,0,2.63-2.36,5.78-2.36,9.45,0,2.63,1.31,5,3.94,5,4.46,0,16.54-10.76,33.33-10.76,7.35,0,37.8,1.05,37.8,70.08,0,103.15-8.14,97.9-17.06,97.9Z"/><path class="cls-1" d="M1449.76,278.76c0-12.34,6.3-28.09,8.4-28.09,1.31,0,7.88,39.63,45.15,39.63,10.76,0,23.36-5.51,23.36-18.89,0-27-70.87-20-70.87-72.18,0-32,25.72-49.35,54.07-49.35,32.8,0,50.92,19.69,50.92,24.94,0,5-14.7,26.24-20.74,26.24-6.82,0-8.4-20.21-32.55-20.21-8.13,0-19.16,3.68-19.16,11.55,0,27,76.65,26.51,76.65,79.79,0,34.13-28.35,53.55-59.85,53.55C1477.32,325.74,1449.76,309.46,1449.76,278.76Z"/><path class="cls-1" d="M1323.67,88.88s-15.86-9.16-35.42-9.16c-1,0-2.08,0-3.11.08a60.51,60.51,0,0,0,4.82-4.34c13.83-13.83,18.27-31.82,18.27-31.82s-18,4.44-31.82,18.27a66.3,66.3,0,0,0-6.53,7.67,109.1,109.1,0,0,0,1.71-18.9c0-28-11.84-50.68-11.84-50.68s-11.83,22.69-11.83,50.68a110.12,110.12,0,0,0,1.7,18.9,65.22,65.22,0,0,0-6.52-7.67c-13.84-13.83-31.82-18.27-31.82-18.27s4.44,18,18.27,31.82a60.51,60.51,0,0,0,4.82,4.34c-1,0-2.07-.08-3.11-.08-19.57,0-35.42,9.16-35.42,9.16S1211.69,98,1231.25,98a69,69,0,0,0,12.35-1.15l-.46.44c-9.18,9.19-11.05,22.21-11.05,22.21s13-1.88,22.2-11.06c.45-.45.88-.91,1.3-1.38v20.74h8.33V107.09c.42.47.85.93,1.3,1.38,9.18,9.19,22.2,11.06,22.2,11.06s-1.87-13-11.06-22.21l-.45-.44A69,69,0,0,0,1288.25,98C1307.81,98,1323.67,88.88,1323.67,88.88Z"/></g></g></svg>