<svg xmlns="http://www.w3.org/2000/svg" viewBox="0 0 956 536.27"><defs><style>.cls-1{fill:#7ac251;}</style></defs><title>Asset 2</title><g id="Layer_2" data-name="Layer 2"><g id="Layer_1-2" data-name="Layer 1"><path class="cls-1" d="M354.28,376.46a79.91,79.91,0,1,0,79.83,80C434,412.24,398.33,376.46,354.28,376.46Zm0,119.66a39.84,39.84,0,1,1,39.84-39.83A39.9,39.9,0,0,1,354.28,496.12ZM956,317.42v85.13A38.4,38.4,0,0,1,917.57,441H876.33a105.53,105.53,0,0,0-208.85,0H458.63c-7.5-51.08-51.39-90.29-104.35-90.29A105.54,105.54,0,0,0,249.93,441H198.39A38.4,38.4,0,0,1,160,402.55V317.42Zm-184.17,59a79.91,79.91,0,1,0,79.82,80A80,80,0,0,0,771.83,376.46Zm0,119.66a39.84,39.84,0,1,1,39.83-39.83A39.89,39.89,0,0,1,771.83,496.12Zm169-264.62L789.64,81.85A51.49,51.49,0,0,0,753.55,67H677.17V38.43A38.4,38.4,0,0,0,638.74,0H198.23A38.4,38.4,0,0,0,159.8,38.43v6.09L3.59,62.48,280.24,98.57,0,126.37l279.3,39.68L0,190.26l159.8,30.15V296H956V267.9A51.61,51.61,0,0,0,940.85,231.5Zm-65.92,5H728.56a6.09,6.09,0,0,1-6.09-6.09V117.47a6.09,6.09,0,0,1,6.09-6.09h27.8a6,6,0,0,1,4.22,1.72L879,226A6,6,0,0,1,874.93,236.5Z"/></g></g></svg>