<?xml version="1.0" encoding="utf-8"?>
<!-- Generator: Adobe Illustrator 22.0.1, SVG Export Plug-In . SVG Version: 6.00 Build 0)  -->
<svg version="1.1" id="Layer_1" xmlns="http://www.w3.org/2000/svg" xmlns:xlink="http://www.w3.org/1999/xlink" x="0px" y="0px"
	 viewBox="0 0 512 512" style="enable-background:new 0 0 512 512;" xml:space="preserve">
<style type="text/css">
	.st0{fill:#7AC251;}
</style>
<g>
	<g>
		<path class="st0" d="M512,356c0,0-63.5-36.7-141.9-36.7c-4.2,0-8.4,0.1-12.5,0.3c6.6-5.3,13-11.1,19.3-17.4
			c55.4-55.4,73.2-127.4,73.2-127.4s-72,17.8-127.4,73.2c-9.9,9.9-18.5,20.3-26.1,30.7c4.1-23.4,6.8-48.9,6.8-75.7
			C303.4,90.9,256,0,256,0s-47.4,90.9-47.4,203c0,26.8,2.7,52.3,6.8,75.7c-7.6-10.4-16.3-20.8-26.1-30.7
			c-55.4-55.4-127.4-73.2-127.4-73.2s17.8,72,73.2,127.4c6.3,6.3,12.7,12,19.3,17.4c-4.1-0.2-8.3-0.3-12.5-0.3
			C63.5,319.3,0,356,0,356s63.5,36.7,141.9,36.7c17.4,0,34-1.8,49.4-4.6c-0.6,0.6-1.2,1.2-1.8,1.8c-36.8,36.8-44.3,88.9-44.3,88.9
			s52.1-7.5,88.9-44.3c1.8-1.8,3.5-3.7,5.2-5.5V512h33.4v-83.1c1.7,1.9,3.4,3.7,5.2,5.5c36.8,36.8,88.9,44.3,88.9,44.3
			s-7.5-52.1-44.3-88.9c-0.6-0.6-1.2-1.2-1.8-1.8c15.4,2.8,32.1,4.6,49.4,4.6C448.5,392.6,512,356,512,356z"/>
	</g>
</g>
</svg>
